<svg xmlns="http://www.w3.org/2000/svg" viewBox="0 0 64 64" role="img" aria-label="Cap26 favicon">
  <defs>
    <linearGradient id="g" x1="0%" y1="0%" x2="100%" y2="100%">
      <stop offset="0%" stop-color="#7d7aff" />
      <stop offset="100%" stop-color="#ff8c69" />
    </linearGradient>
  </defs>
  <rect width="64" height="64" rx="18" fill="#080d1f" />
  <path d="M19 20.5c0-3.59 2.91-6.5 6.5-6.5h12c4.42 0 8 3.58 8 8 0 2.39-1.05 4.54-2.72 6.01A10.48 10.48 0 0 1 48 37c0 7.18-5.82 13-13 13H18.5c-1.93 0-3.5-1.57-3.5-3.5S16.57 43 18.5 43H35c3.31 0 6-2.69 6-6s-2.69-6-6-6H25.5C21.91 31 19 28.09 19 24.5v-4Z" fill="url(#g)" />
  <circle cx="42" cy="22" r="4" fill="#6ff7b0" />
</svg>