<svg xmlns="http://www.w3.org/2000/svg" viewBox="0 0 1200 630" role="img" aria-label="Cap26 social preview">
  <defs>
    <linearGradient id="bg" x1="0%" y1="0%" x2="100%" y2="100%">
      <stop offset="0%" stop-color="#050816" />
      <stop offset="100%" stop-color="#091228" />
    </linearGradient>
    <linearGradient id="accent" x1="0%" y1="0%" x2="100%" y2="100%">
      <stop offset="0%" stop-color="#7d7aff" />
      <stop offset="100%" stop-color="#ff8c69" />
    </linearGradient>
  </defs>
  <rect width="1200" height="630" fill="url(#bg)" />
  <circle cx="180" cy="120" r="140" fill="#7d7aff" opacity="0.18" />
  <circle cx="1020" cy="120" r="120" fill="#48d4ff" opacity="0.12" />
  <circle cx="940" cy="520" r="150" fill="#ff8c69" opacity="0.12" />
  <rect x="82" y="70" width="1036" height="490" rx="34" fill="#0b1228" stroke="#ffffff" stroke-opacity="0.16" />
  <rect x="126" y="118" width="54" height="54" rx="16" fill="url(#accent)" />
  <text x="210" y="157" fill="#f5f7ff" font-family="Arial, sans-serif" font-size="54" font-weight="700">Cap26</text>
  <text x="126" y="252" fill="#f5f7ff" font-family="Arial, sans-serif" font-size="84" font-weight="700">Screen recording</text>
  <text x="126" y="336" fill="#f5f7ff" font-family="Arial, sans-serif" font-size="84" font-weight="700">with a complete editor</text>
  <text x="126" y="398" fill="#bfc9ef" font-family="Arial, sans-serif" font-size="30">Cuts, effects, mic, webcam, captions and backgrounds for macOS.</text>
  <rect x="730" y="170" width="308" height="220" rx="26" fill="#0f1730" stroke="#ffffff" stroke-opacity="0.10" />
  <rect x="756" y="198" width="256" height="144" rx="20" fill="#050816" />
  <rect x="796" y="228" width="170" height="88" rx="18" fill="#eef1fb" opacity="0.92" />
  <circle cx="950" cy="315" r="26" fill="#c58e79" />
  <rect x="756" y="362" width="200" height="14" rx="7" fill="#7d7aff" opacity="0.7" />
  <rect x="756" y="390" width="160" height="14" rx="7" fill="#48d4ff" opacity="0.6" />
  <rect x="126" y="454" width="248" height="46" rx="23" fill="url(#accent)" />
  <text x="162" y="485" fill="#140a1d" font-family="Arial, sans-serif" font-size="24" font-weight="700">macOS only</text>
</svg>