<svg width="500" height="580" viewBox="200 88 500 580" fill="none" xmlns="http://www.w3.org/2000/svg">
  <title>Cap26 Vertical Lockup Black</title>

  <g transform="translate(250 68) scale(6.25)">
    <rect x="4" y="4" width="56" height="56" rx="17" fill="#111111" />
    <rect x="4.5" y="4.5" width="55" height="55" rx="16.5" stroke="rgba(17,17,17,0.14)" />
    <circle cx="32" cy="32" r="14.2" stroke="#FFFFFF" stroke-width="8.2" />
    <circle cx="32" cy="32" r="13.2" stroke="rgba(255,255,255,0.32)" stroke-width="2.5" stroke-dasharray="19 64" stroke-linecap="round" transform="rotate(-125 32 32)" />
    <circle cx="32" cy="32" r="13.2" stroke="rgba(0,0,0,0.22)" stroke-width="3.2" stroke-dasharray="26 57" stroke-linecap="round" transform="rotate(36 32 32)" />
    <path d="M24.6 31.8C24.6 27.76 27.85 24.48 31.87 24.44C36.1 24.4 39.46 27.76 39.42 31.99C39.38 36.15 36.03 39.5 31.87 39.5C27.86 39.5 24.6 36.24 24.6 32.23V31.8Z" fill="#111111" />
  </g>

  <g transform="translate(0, 45)">
    <text x="450" y="520" text-anchor="middle" fill="#111111" font-family="Inter, system-ui, sans-serif" font-size="148" font-weight="700" letter-spacing="-5">cap</text>
    <text x="610" y="450" text-anchor="middle" fill="rgba(17,17,17,0.62)" font-family="Inter, system-ui, sans-serif" font-size="62" font-weight="600" letter-spacing="-1">26</text>
    <text x="450" y="596" text-anchor="middle" fill="rgba(17,17,17,0.62)" font-family="Inter, system-ui, sans-serif" font-size="58" font-weight="500" letter-spacing="0.2">make better</text>
  </g>
</svg>